<svg width="202" height="129" viewBox="0 0 202 129" fill="none" xmlns="http://www.w3.org/2000/svg">
<path d="M30.2891 75.4766C30.2891 74.8672 30.1016 74.4609 29.7266 74.2578C29.3672 74.0547 28.8359 73.9531 28.1328 73.9531H17.2578V72.2656H28.1328C30.6953 72.2656 31.9766 73.3359 31.9766 75.4766C31.9766 76.6797 31.625 77.5469 30.9219 78.0781C30.2188 78.6094 29.2891 78.875 28.1328 78.875H17.2578V77.1875H28.1328C29.5703 77.1875 30.2891 76.6172 30.2891 75.4766ZM16.3203 89H14.6328V60.3125H28.1328C29.1953 60.3125 30.1016 60.6406 30.8516 61.2969C31.6016 61.9375 31.9766 62.7422 31.9766 63.7109C31.9766 64.9922 31.625 65.9219 30.9219 66.5C30.2188 67.0625 29.2891 67.3438 28.1328 67.3438H17.2578V65.6562H28.1328C29.5703 65.6562 30.2891 65.0078 30.2891 63.7109C30.2891 63.1797 30.0859 62.7656 29.6797 62.4688C29.2734 62.1562 28.7578 62 28.1328 62H16.3203V89ZM17.2578 69.0312H28.1328C29.6797 69.0312 30.9844 68.5703 32.0469 67.6484C33.125 66.7109 33.6641 65.3984 33.6641 63.7109C33.6641 62.3516 33.1016 61.1641 31.9766 60.1484C30.8672 59.1328 29.5859 58.625 28.1328 58.625H12.9453V89H11.2578V56.9375H28.1328C30.0547 56.9375 31.7344 57.6172 33.1719 58.9766C34.625 60.3203 35.3516 61.8984 35.3516 63.7109C35.3516 65.1328 35.0156 66.375 34.3438 67.4375C33.6875 68.5 32.7969 69.3203 31.6719 69.8984C34.125 70.7734 35.3516 72.5547 35.3516 75.2422C35.3516 77.3672 34.6484 79.0703 33.2422 80.3516C31.8359 81.6172 30.1328 82.25 28.1328 82.25H17.2578V80.5625H28.1328C29.6797 80.5625 30.9844 80.1016 32.0469 79.1797C33.125 78.2422 33.6641 76.9297 33.6641 75.2422C33.6641 74.1016 33.2578 73.0938 32.4453 72.2188C31.6328 71.3438 30.4375 70.8359 28.8594 70.6953C28.7031 70.7109 28.4609 70.7188 28.1328 70.7188H17.2578V69.0312ZM38.7266 63.7109C38.7266 65.8984 37.9531 67.875 36.4062 69.6406C37.9531 71.3594 38.7266 73.2266 38.7266 75.2422C38.7266 77.1953 38.2344 78.9766 37.25 80.5859C36.2812 82.1797 34.9844 83.4219 33.3594 84.3125C31.75 85.1875 30.0078 85.625 28.1328 85.625H17.2578V83.9375H28.1328C30.5703 83.9375 32.6641 83.125 34.4141 81.5C36.1641 79.8594 37.0391 77.7734 37.0391 75.2422C37.0391 74.3359 36.8047 73.3359 36.3359 72.2422C35.8828 71.1328 35.25 70.2891 34.4375 69.7109C36.1719 68.0859 37.0391 66.0859 37.0391 63.7109C37.0391 61.4297 36.1484 59.4531 34.3672 57.7812C32.5859 56.0938 30.5078 55.25 28.1328 55.25H9.57031V89H7.88281V53.5625H28.1328C29.9922 53.5625 31.7344 54.0234 33.3594 54.9453C35 55.8516 36.3047 57.0938 37.2734 58.6719C38.2422 60.2344 38.7266 61.9141 38.7266 63.7109ZM38.3281 69.7344C39.7188 67.875 40.4141 65.8672 40.4141 63.7109C40.4141 61.6016 39.8516 59.6406 38.7266 57.8281C37.6172 56 36.1172 54.5547 34.2266 53.4922C32.3359 52.4141 30.3047 51.875 28.1328 51.875H6.19531V89H4.50781V50.1875H28.1328C30.6016 50.1875 32.9062 50.7969 35.0469 52.0156C37.2031 53.2344 38.9141 54.8906 40.1797 56.9844C41.4609 59.0625 42.1016 61.3047 42.1016 63.7109C42.1016 66.0078 41.4531 68.0234 40.1562 69.7578C41.4531 71.5547 42.1016 73.3828 42.1016 75.2422C42.1016 77.3359 41.7266 79.2578 40.9766 81.0078C40.2266 82.7422 39.2109 84.1875 37.9297 85.3438C36.6641 86.5 35.1875 87.3984 33.5 88.0391C31.8125 88.6797 30.0234 89 28.1328 89H17.2578V87.3125H28.1328C29.7734 87.3125 31.3438 87.0078 32.8438 86.3984C34.3438 85.7734 35.6484 84.9297 36.7578 83.8672C37.8672 82.8047 38.75 81.5234 39.4062 80.0234C40.0781 78.5234 40.4141 76.9297 40.4141 75.2422C40.4141 74.4922 40.2344 73.5938 39.875 72.5469C39.5312 71.4844 39.0156 70.5469 38.3281 69.7344ZM58.6484 72.875H68.8203C70.1641 72.875 71.3047 72.4531 72.2422 71.6094C73.1797 70.7656 73.6484 69.5781 73.6484 68.0469C73.6484 66.9219 73.1562 65.9141 72.1719 65.0234C71.2031 64.1328 70.0859 63.6875 68.8203 63.6875H54.3359V89H52.6484V62H68.8203C70.5547 62 72.0703 62.6094 73.3672 63.8281C74.6797 65.0469 75.3359 66.4531 75.3359 68.0469C75.3359 70.0312 74.7031 71.6172 73.4375 72.8047C72.1719 73.9766 70.6328 74.5625 68.8203 74.5625H58.6484V72.875ZM58.6484 76.25H68.8203C71.0703 76.25 73 75.4844 74.6094 73.9531C76.2188 72.4219 77.0234 70.4531 77.0234 68.0469C77.0234 66 76.2031 64.2031 74.5625 62.6562C72.9219 61.0938 71.0078 60.3125 68.8203 60.3125H50.9609V89H49.2734V58.625H68.8203C71.4766 58.625 73.7891 59.5703 75.7578 61.4609C77.7266 63.3359 78.7109 65.5312 78.7109 68.0469C78.7109 70.8594 77.7344 73.2109 75.7812 75.1016C73.8438 76.9922 71.5234 77.9375 68.8203 77.9375H58.6484V76.25ZM58.6484 79.625H68.8203C70.8984 79.625 72.8203 79.125 74.5859 78.125C76.3516 77.125 77.7578 75.7344 78.8047 73.9531C79.8672 72.1719 80.3984 70.2031 80.3984 68.0469C80.3984 66.0938 79.875 64.2656 78.8281 62.5625C77.7812 60.8438 76.3594 59.4766 74.5625 58.4609C72.7812 57.4453 70.8672 56.9375 68.8203 56.9375H47.5859V89H45.8984V55.25H68.8203C70.5859 55.25 72.2812 55.6016 73.9062 56.3047C75.5469 56.9922 76.9609 57.9141 78.1484 59.0703C79.3359 60.2109 80.2891 61.5703 81.0078 63.1484C81.7266 64.7266 82.0859 66.3594 82.0859 68.0469C82.0859 70.7812 81.4609 73.1719 80.2109 75.2188C78.9609 77.25 77.2812 78.7969 75.1719 79.8594L78.7109 89H76.9062L73.5547 80.5391C73.1328 80.6797 72.6406 80.8203 72.0781 80.9609L75.2422 89H73.4375L70.3438 81.2422C69.8594 81.2891 69.3516 81.3125 68.8203 81.3125L71.7969 89H70.0156L67.0625 81.3125H65.5391L68.375 89H66.5938L63.7344 81.3125H58.6484V79.625ZM57.7109 89H56.0234V65.375H68.8203C69.6953 65.375 70.4375 65.6406 71.0469 66.1719C71.6562 66.6875 71.9609 67.3125 71.9609 68.0469C71.9609 70.1406 70.9141 71.1875 68.8203 71.1875H58.6484V69.5H68.8203C69.7891 69.5 70.2734 69.0156 70.2734 68.0469C70.2734 67.7812 70.125 67.5547 69.8281 67.3672C69.5469 67.1641 69.2109 67.0625 68.8203 67.0625H57.7109V89ZM107.984 74.0469V55.25H109.672V74.0469C109.672 75.8281 108.984 77.3594 107.609 78.6406C106.25 79.9219 104.609 80.5625 102.688 80.5625C100.766 80.5625 99.1172 79.9219 97.7422 78.6406C96.3828 77.3594 95.7031 75.8281 95.7031 74.0469V55.25H97.3906V74.0469C97.3906 75.375 97.9062 76.5156 98.9375 77.4688C99.9844 78.4062 101.234 78.875 102.688 78.875C104.141 78.875 105.383 78.4062 106.414 77.4688C107.461 76.5156 107.984 75.375 107.984 74.0469ZM111.359 74.0469V55.25H113.047V74.0469C113.047 76.7812 112.031 79.1172 110 81.0547C107.969 82.9766 105.531 83.9375 102.688 83.9375C99.8438 83.9375 97.4062 82.9766 95.375 81.0547C93.3438 79.1172 92.3281 76.7812 92.3281 74.0469V55.25H94.0156V74.0469C94.0156 76.3125 94.8594 78.25 96.5469 79.8594C98.25 81.4531 100.297 82.25 102.688 82.25C105.062 82.25 107.102 81.4531 108.805 79.8594C110.508 78.25 111.359 76.3125 111.359 74.0469ZM114.734 74.0469V55.25H116.422V74.0469C116.422 76.4375 115.805 78.6562 114.57 80.7031C113.336 82.7344 111.664 84.3438 109.555 85.5312C107.445 86.7188 105.156 87.3125 102.688 87.3125C100.219 87.3125 97.9297 86.7188 95.8203 85.5312C93.7109 84.3438 92.0391 82.7344 90.8047 80.7031C89.5703 78.6562 88.9531 76.4375 88.9531 74.0469V55.25H90.6406V74.0469C90.6406 76.125 91.1797 78.0547 92.2578 79.8359C93.3359 81.6172 94.7969 83.0312 96.6406 84.0781C98.5 85.1094 100.516 85.625 102.688 85.625C104.859 85.625 106.867 85.1094 108.711 84.0781C110.57 83.0312 112.039 81.6172 113.117 79.8359C114.195 78.0547 114.734 76.125 114.734 74.0469ZM118.109 74.0469V55.25H119.797V74.0469C119.797 76.2969 119.344 78.4531 118.438 80.5156C117.531 82.5625 116.312 84.3281 114.781 85.8125C113.25 87.2969 111.43 88.4766 109.32 89.3516C107.211 90.2422 105 90.6875 102.688 90.6875C100.375 90.6875 98.1641 90.2422 96.0547 89.3516C93.9453 88.4766 92.125 87.2969 90.5938 85.8125C89.0625 84.3281 87.8438 82.5625 86.9375 80.5156C86.0312 78.4531 85.5781 76.2969 85.5781 74.0469V55.25H87.2656V74.0469C87.2656 76.7344 87.9531 79.2266 89.3281 81.5234C90.7188 83.8203 92.5938 85.6406 94.9531 86.9844C97.3281 88.3281 99.9062 89 102.688 89C105.469 89 108.039 88.3281 110.398 86.9844C112.773 85.6406 114.648 83.8203 116.023 81.5234C117.414 79.2266 118.109 76.7344 118.109 74.0469ZM150.664 75.3828L148.977 72.3125V55.25H150.664V75.3828ZM154.039 81.2188L152.352 78.3594V55.25H154.039V81.2188ZM130.789 68.8672L132.477 71.9375V89H130.789V68.8672ZM127.414 62.7969L129.102 65.8906V89H127.414V62.7969ZM128 55.25H129.969L149.516 89H147.547L128 55.25ZM131.984 55.25H133.977L153.5 89H151.484L131.984 55.25ZM135.945 55.25H137.914L155.727 86.0703V55.25H157.414V89H155.422L135.945 55.25ZM125.727 58.1562V89H124.039V55.25H126.055L145.531 89H143.586L125.727 58.1562ZM174.711 67.3672C173.398 68.6797 172.742 70.2656 172.742 72.125C172.742 73.9844 173.398 75.5781 174.711 76.9062C176.039 78.2188 177.633 78.875 179.492 78.875C181.352 78.875 182.938 78.2188 184.25 76.9062C185.578 75.5781 186.242 73.9844 186.242 72.125C186.242 70.2656 185.578 68.6797 184.25 67.3672C182.938 66.0391 181.352 65.375 179.492 65.375C177.633 65.375 176.039 66.0391 174.711 67.3672ZM173.516 78.1016C171.875 76.4453 171.055 74.4531 171.055 72.125C171.055 69.7969 171.875 67.8125 173.516 66.1719C175.172 64.5156 177.164 63.6875 179.492 63.6875C181.82 63.6875 183.805 64.5156 185.445 66.1719C187.102 67.8125 187.93 69.7969 187.93 72.125C187.93 74.4531 187.102 76.4453 185.445 78.1016C183.805 79.7422 181.82 80.5625 179.492 80.5625C177.164 80.5625 175.172 79.7422 173.516 78.1016ZM172.32 64.9766C170.352 66.9609 169.367 69.3438 169.367 72.125C169.367 74.9062 170.352 77.2891 172.32 79.2734C174.305 81.2578 176.695 82.25 179.492 82.25C182.289 82.25 184.672 81.2578 186.641 79.2734C188.625 77.2891 189.617 74.9062 189.617 72.125C189.617 69.3438 188.625 66.9609 186.641 64.9766C184.672 62.9922 182.289 62 179.492 62C176.695 62 174.305 62.9922 172.32 64.9766ZM169.25 78.0547C168.203 76.2422 167.68 74.2656 167.68 72.125C167.68 69.9844 168.203 68.0078 169.25 66.1953C170.312 64.3828 171.75 62.9531 173.562 61.9062C175.375 60.8438 177.352 60.3125 179.492 60.3125C181.633 60.3125 183.609 60.8438 185.422 61.9062C187.234 62.9531 188.664 64.3828 189.711 66.1953C190.773 68.0078 191.305 69.9844 191.305 72.125C191.305 74.2656 190.773 76.2422 189.711 78.0547C188.664 79.8672 187.234 81.3047 185.422 82.3672C183.609 83.4141 181.633 83.9375 179.492 83.9375C177.352 83.9375 175.375 83.4141 173.562 82.3672C171.75 81.3047 170.312 79.8672 169.25 78.0547ZM167.047 66.8984C166.344 68.5547 165.992 70.2969 165.992 72.125C165.992 73.9531 166.344 75.7031 167.047 77.375C167.766 79.0312 168.727 80.4688 169.93 81.6875C171.148 82.8906 172.586 83.8516 174.242 84.5703C175.914 85.2734 177.664 85.625 179.492 85.625C181.32 85.625 183.062 85.2734 184.719 84.5703C186.391 83.8516 187.828 82.8906 189.031 81.6875C190.25 80.4688 191.211 79.0312 191.914 77.375C192.633 75.7031 192.992 73.9531 192.992 72.125C192.992 70.2969 192.633 68.5547 191.914 66.8984C191.211 65.2266 190.25 63.7891 189.031 62.5859C187.828 61.3672 186.391 60.4062 184.719 59.7031C183.062 58.9844 181.32 58.625 179.492 58.625C177.664 58.625 175.914 58.9844 174.242 59.7031C172.586 60.4062 171.148 61.3672 169.93 62.5859C168.727 63.7891 167.766 65.2266 167.047 66.8984ZM165.5 78.0312C164.703 76.1562 164.305 74.1875 164.305 72.125C164.305 70.0625 164.703 68.0938 165.5 66.2188C166.312 64.3438 167.391 62.7344 168.734 61.3906C170.094 60.0312 171.711 58.9531 173.586 58.1562C175.461 57.3438 177.43 56.9375 179.492 56.9375C181.555 56.9375 183.523 57.3438 185.398 58.1562C187.273 58.9531 188.883 60.0312 190.227 61.3906C191.586 62.7344 192.664 64.3438 193.461 66.2188C194.273 68.0938 194.68 70.0625 194.68 72.125C194.68 74.1875 194.273 76.1562 193.461 78.0312C192.664 79.9062 191.586 81.5234 190.227 82.8828C188.883 84.2266 187.273 85.3047 185.398 86.1172C183.523 86.9141 181.555 87.3125 179.492 87.3125C177.43 87.3125 175.461 86.9141 173.586 86.1172C171.711 85.3047 170.094 84.2266 168.734 82.8828C167.391 81.5234 166.312 79.9062 165.5 78.0312ZM163.953 65.5859C163.062 67.6641 162.617 69.8438 162.617 72.125C162.617 74.4062 163.062 76.5938 163.953 78.6875C164.844 80.7656 166.039 82.5625 167.539 84.0781C169.055 85.5781 170.852 86.7734 172.93 87.6641C175.023 88.5547 177.211 89 179.492 89C181.773 89 183.953 88.5547 186.031 87.6641C188.125 86.7734 189.922 85.5781 191.422 84.0781C192.938 82.5625 194.141 80.7656 195.031 78.6875C195.922 76.5938 196.367 74.4062 196.367 72.125C196.367 69.8438 195.922 67.6641 195.031 65.5859C194.141 63.4922 192.938 61.6953 191.422 60.1953C189.922 58.6797 188.125 57.4766 186.031 56.5859C183.953 55.6953 181.773 55.25 179.492 55.25C177.211 55.25 175.023 55.6953 172.93 56.5859C170.852 57.4766 169.055 58.6797 167.539 60.1953C166.039 61.6953 164.844 63.4922 163.953 65.5859ZM162.406 79.3438C161.422 77.0469 160.93 74.6406 160.93 72.125C160.93 69.6094 161.422 67.2109 162.406 64.9297C163.391 62.6328 164.711 60.6562 166.367 59C168.023 57.3438 169.992 56.0234 172.273 55.0391C174.57 54.0547 176.977 53.5625 179.492 53.5625C182.008 53.5625 184.406 54.0547 186.688 55.0391C188.984 56.0234 190.961 57.3438 192.617 59C194.273 60.6562 195.594 62.6328 196.578 64.9297C197.562 67.2109 198.055 69.6094 198.055 72.125C198.055 74.6406 197.562 77.0469 196.578 79.3438C195.594 81.625 194.273 83.5938 192.617 85.25C190.961 86.9062 188.984 88.2266 186.688 89.2109C184.406 90.1953 182.008 90.6875 179.492 90.6875C176.977 90.6875 174.57 90.1953 172.273 89.2109C169.992 88.2266 168.023 86.9062 166.367 85.25C164.711 83.5938 163.391 81.625 162.406 79.3438Z" fill="#030303"/>
<path d="M36.3248 123C36.1381 123 35.9794 122.935 35.8488 122.804C35.7181 122.673 35.6528 122.515 35.6528 122.328V104.1C35.6528 103.895 35.7181 103.727 35.8488 103.596C35.9794 103.465 36.1381 103.4 36.3248 103.4H43.1568C45.0421 103.4 46.5914 103.689 47.8048 104.268C49.0368 104.847 49.9608 105.705 50.5768 106.844C51.2114 107.983 51.5381 109.373 51.5568 111.016C51.5941 111.837 51.6128 112.565 51.6128 113.2C51.6128 113.835 51.5941 114.553 51.5568 115.356C51.5194 117.092 51.2021 118.529 50.6048 119.668C50.0074 120.788 49.1021 121.628 47.8888 122.188C46.6941 122.729 45.1634 123 43.2968 123H36.3248ZM39.5448 119.78H43.1568C44.2021 119.78 45.0514 119.631 45.7048 119.332C46.3581 119.033 46.8341 118.557 47.1328 117.904C47.4501 117.232 47.6181 116.355 47.6368 115.272C47.6554 114.712 47.6648 114.227 47.6648 113.816C47.6834 113.387 47.6834 112.967 47.6648 112.556C47.6648 112.127 47.6554 111.641 47.6368 111.1C47.5994 109.569 47.2168 108.44 46.4888 107.712C45.7608 106.984 44.6034 106.62 43.0168 106.62H39.5448V119.78ZM61.2763 123.28C59.2043 123.28 57.5616 122.683 56.3483 121.488C55.1349 120.293 54.4816 118.595 54.3883 116.392C54.3696 116.205 54.3603 115.972 54.3603 115.692C54.3603 115.393 54.3696 115.16 54.3883 114.992C54.4629 113.592 54.7803 112.379 55.3403 111.352C55.9189 110.325 56.7123 109.541 57.7203 109C58.7283 108.44 59.9136 108.16 61.2763 108.16C62.7883 108.16 64.0576 108.477 65.0843 109.112C66.1109 109.728 66.8856 110.596 67.4083 111.716C67.9309 112.817 68.1923 114.096 68.1923 115.552V116.14C68.1923 116.327 68.1269 116.485 67.9963 116.616C67.8656 116.747 67.6976 116.812 67.4923 116.812H58.1963C58.1963 116.812 58.1963 116.84 58.1963 116.896C58.1963 116.952 58.1963 116.999 58.1963 117.036C58.2149 117.689 58.3363 118.296 58.5603 118.856C58.8029 119.397 59.1483 119.836 59.5963 120.172C60.0629 120.508 60.6136 120.676 61.2483 120.676C61.7709 120.676 62.2096 120.601 62.5643 120.452C62.9189 120.284 63.2083 120.097 63.4323 119.892C63.6563 119.687 63.8149 119.519 63.9083 119.388C64.0763 119.164 64.2069 119.033 64.3003 118.996C64.4123 118.94 64.5709 118.912 64.7763 118.912H67.1843C67.3709 118.912 67.5203 118.968 67.6323 119.08C67.7629 119.192 67.8189 119.332 67.8003 119.5C67.7816 119.799 67.6229 120.163 67.3243 120.592C67.0443 121.021 66.6336 121.441 66.0923 121.852C65.5509 122.263 64.8696 122.608 64.0483 122.888C63.2456 123.149 62.3216 123.28 61.2763 123.28ZM58.1963 114.46H64.3843V114.376C64.3843 113.648 64.2629 113.013 64.0203 112.472C63.7776 111.931 63.4229 111.501 62.9563 111.184C62.4896 110.867 61.9296 110.708 61.2763 110.708C60.6229 110.708 60.0629 110.867 59.5963 111.184C59.1296 111.501 58.7749 111.931 58.5323 112.472C58.3083 113.013 58.1963 113.648 58.1963 114.376V114.46ZM75.7969 123C75.4982 123 75.2742 122.935 75.1249 122.804C74.9942 122.655 74.8822 122.487 74.7889 122.3L69.5529 109.308C69.5155 109.215 69.4969 109.131 69.4969 109.056C69.4969 108.888 69.5529 108.748 69.6649 108.636C69.7955 108.505 69.9449 108.44 70.1129 108.44H72.3809C72.6049 108.44 72.7729 108.505 72.8849 108.636C72.9969 108.748 73.0715 108.86 73.1089 108.972L76.8329 118.8L80.5569 108.972C80.5942 108.86 80.6689 108.748 80.7809 108.636C80.8929 108.505 81.0609 108.44 81.2849 108.44H83.5809C83.7302 108.44 83.8609 108.505 83.9729 108.636C84.1035 108.748 84.1689 108.888 84.1689 109.056C84.1689 109.131 84.1595 109.215 84.1409 109.308L78.8769 122.3C78.8022 122.487 78.6902 122.655 78.5409 122.804C78.3915 122.935 78.1675 123 77.8689 123H75.7969ZM92.4755 123.28C90.4035 123.28 88.7608 122.683 87.5475 121.488C86.3341 120.293 85.6808 118.595 85.5875 116.392C85.5688 116.205 85.5595 115.972 85.5595 115.692C85.5595 115.393 85.5688 115.16 85.5875 114.992C85.6621 113.592 85.9795 112.379 86.5395 111.352C87.1181 110.325 87.9115 109.541 88.9195 109C89.9275 108.44 91.1128 108.16 92.4755 108.16C93.9875 108.16 95.2568 108.477 96.2835 109.112C97.3101 109.728 98.0848 110.596 98.6075 111.716C99.1301 112.817 99.3915 114.096 99.3915 115.552V116.14C99.3915 116.327 99.3261 116.485 99.1955 116.616C99.0648 116.747 98.8968 116.812 98.6915 116.812H89.3955C89.3955 116.812 89.3955 116.84 89.3955 116.896C89.3955 116.952 89.3955 116.999 89.3955 117.036C89.4141 117.689 89.5355 118.296 89.7595 118.856C90.0021 119.397 90.3475 119.836 90.7955 120.172C91.2621 120.508 91.8128 120.676 92.4475 120.676C92.9701 120.676 93.4088 120.601 93.7635 120.452C94.1181 120.284 94.4075 120.097 94.6315 119.892C94.8555 119.687 95.0141 119.519 95.1075 119.388C95.2755 119.164 95.4061 119.033 95.4995 118.996C95.6115 118.94 95.7701 118.912 95.9755 118.912H98.3835C98.5701 118.912 98.7195 118.968 98.8315 119.08C98.9621 119.192 99.0181 119.332 98.9995 119.5C98.9808 119.799 98.8221 120.163 98.5235 120.592C98.2435 121.021 97.8328 121.441 97.2915 121.852C96.7501 122.263 96.0688 122.608 95.2475 122.888C94.4448 123.149 93.5208 123.28 92.4755 123.28ZM89.3955 114.46H95.5835V114.376C95.5835 113.648 95.4621 113.013 95.2195 112.472C94.9768 111.931 94.6221 111.501 94.1555 111.184C93.6888 110.867 93.1288 110.708 92.4755 110.708C91.8221 110.708 91.2621 110.867 90.7955 111.184C90.3288 111.501 89.9741 111.931 89.7315 112.472C89.5075 113.013 89.3955 113.648 89.3955 114.376V114.46ZM103.064 123C102.877 123 102.718 122.935 102.588 122.804C102.457 122.673 102.392 122.515 102.392 122.328V103.792C102.392 103.605 102.457 103.447 102.588 103.316C102.718 103.185 102.877 103.12 103.064 103.12H105.388C105.574 103.12 105.733 103.185 105.864 103.316C105.994 103.447 106.06 103.605 106.06 103.792V122.328C106.06 122.515 105.994 122.673 105.864 122.804C105.733 122.935 105.574 123 105.388 123H103.064ZM116.214 123.28C114.72 123.28 113.46 123.019 112.434 122.496C111.426 121.973 110.651 121.236 110.11 120.284C109.587 119.332 109.288 118.221 109.214 116.952C109.195 116.616 109.186 116.205 109.186 115.72C109.186 115.235 109.195 114.824 109.214 114.488C109.288 113.2 109.596 112.089 110.138 111.156C110.698 110.204 111.482 109.467 112.49 108.944C113.516 108.421 114.758 108.16 116.214 108.16C117.67 108.16 118.902 108.421 119.91 108.944C120.936 109.467 121.72 110.204 122.262 111.156C122.822 112.089 123.139 113.2 123.214 114.488C123.232 114.824 123.242 115.235 123.242 115.72C123.242 116.205 123.232 116.616 123.214 116.952C123.139 118.221 122.831 119.332 122.29 120.284C121.767 121.236 120.992 121.973 119.966 122.496C118.958 123.019 117.707 123.28 116.214 123.28ZM116.214 120.508C117.203 120.508 117.968 120.2 118.51 119.584C119.051 118.949 119.35 118.025 119.406 116.812C119.424 116.532 119.434 116.168 119.434 115.72C119.434 115.272 119.424 114.908 119.406 114.628C119.35 113.433 119.051 112.519 118.51 111.884C117.968 111.249 117.203 110.932 116.214 110.932C115.224 110.932 114.459 111.249 113.918 111.884C113.376 112.519 113.078 113.433 113.022 114.628C113.003 114.908 112.994 115.272 112.994 115.72C112.994 116.168 113.003 116.532 113.022 116.812C113.078 118.025 113.376 118.949 113.918 119.584C114.459 120.2 115.224 120.508 116.214 120.508ZM127.044 128.32C126.857 128.32 126.699 128.255 126.568 128.124C126.437 127.993 126.372 127.835 126.372 127.648V109.112C126.372 108.925 126.437 108.767 126.568 108.636C126.699 108.505 126.857 108.44 127.044 108.44H129.256C129.461 108.44 129.62 108.505 129.732 108.636C129.863 108.767 129.928 108.925 129.928 109.112V110.232C130.376 109.635 130.964 109.14 131.692 108.748C132.42 108.356 133.325 108.16 134.408 108.16C135.397 108.16 136.256 108.319 136.984 108.636C137.712 108.953 138.319 109.411 138.804 110.008C139.289 110.587 139.663 111.277 139.924 112.08C140.185 112.883 140.335 113.769 140.372 114.74C140.391 115.057 140.4 115.384 140.4 115.72C140.4 116.056 140.391 116.392 140.372 116.728C140.353 117.661 140.213 118.529 139.952 119.332C139.691 120.116 139.308 120.807 138.804 121.404C138.319 121.983 137.712 122.44 136.984 122.776C136.256 123.112 135.397 123.28 134.408 123.28C133.4 123.28 132.541 123.103 131.832 122.748C131.123 122.375 130.544 121.889 130.096 121.292V127.648C130.096 127.835 130.031 127.993 129.9 128.124C129.788 128.255 129.629 128.32 129.424 128.32H127.044ZM133.372 120.284C134.175 120.284 134.8 120.116 135.248 119.78C135.696 119.425 136.013 118.968 136.2 118.408C136.405 117.848 136.527 117.232 136.564 116.56C136.601 116 136.601 115.44 136.564 114.88C136.527 114.208 136.405 113.592 136.2 113.032C136.013 112.472 135.696 112.024 135.248 111.688C134.8 111.333 134.175 111.156 133.372 111.156C132.607 111.156 131.981 111.333 131.496 111.688C131.029 112.043 130.684 112.5 130.46 113.06C130.255 113.601 130.133 114.161 130.096 114.74C130.077 115.076 130.068 115.431 130.068 115.804C130.068 116.177 130.077 116.541 130.096 116.896C130.115 117.456 130.245 117.997 130.488 118.52C130.731 119.024 131.085 119.444 131.552 119.78C132.019 120.116 132.625 120.284 133.372 120.284ZM149.815 123.28C147.743 123.28 146.101 122.683 144.887 121.488C143.674 120.293 143.021 118.595 142.927 116.392C142.909 116.205 142.899 115.972 142.899 115.692C142.899 115.393 142.909 115.16 142.927 114.992C143.002 113.592 143.319 112.379 143.879 111.352C144.458 110.325 145.251 109.541 146.259 109C147.267 108.44 148.453 108.16 149.815 108.16C151.327 108.16 152.597 108.477 153.623 109.112C154.65 109.728 155.425 110.596 155.947 111.716C156.47 112.817 156.731 114.096 156.731 115.552V116.14C156.731 116.327 156.666 116.485 156.535 116.616C156.405 116.747 156.237 116.812 156.031 116.812H146.735C146.735 116.812 146.735 116.84 146.735 116.896C146.735 116.952 146.735 116.999 146.735 117.036C146.754 117.689 146.875 118.296 147.099 118.856C147.342 119.397 147.687 119.836 148.135 120.172C148.602 120.508 149.153 120.676 149.787 120.676C150.31 120.676 150.749 120.601 151.103 120.452C151.458 120.284 151.747 120.097 151.971 119.892C152.195 119.687 152.354 119.519 152.447 119.388C152.615 119.164 152.746 119.033 152.839 118.996C152.951 118.94 153.11 118.912 153.315 118.912H155.723C155.91 118.912 156.059 118.968 156.171 119.08C156.302 119.192 156.358 119.332 156.339 119.5C156.321 119.799 156.162 120.163 155.863 120.592C155.583 121.021 155.173 121.441 154.631 121.852C154.09 122.263 153.409 122.608 152.587 122.888C151.785 123.149 150.861 123.28 149.815 123.28ZM146.735 114.46H152.923V114.376C152.923 113.648 152.802 113.013 152.559 112.472C152.317 111.931 151.962 111.501 151.495 111.184C151.029 110.867 150.469 110.708 149.815 110.708C149.162 110.708 148.602 110.867 148.135 111.184C147.669 111.501 147.314 111.931 147.071 112.472C146.847 113.013 146.735 113.648 146.735 114.376V114.46ZM160.375 123C160.189 123 160.03 122.935 159.899 122.804C159.769 122.673 159.703 122.515 159.703 122.328V109.14C159.703 108.935 159.769 108.767 159.899 108.636C160.03 108.505 160.189 108.44 160.375 108.44H162.643C162.83 108.44 162.989 108.505 163.119 108.636C163.269 108.767 163.343 108.935 163.343 109.14V110.288C163.773 109.691 164.323 109.233 164.995 108.916C165.686 108.599 166.479 108.44 167.375 108.44H168.523C168.729 108.44 168.887 108.505 168.999 108.636C169.13 108.767 169.195 108.925 169.195 109.112V111.128C169.195 111.315 169.13 111.473 168.999 111.604C168.887 111.735 168.729 111.8 168.523 111.8H166.339C165.443 111.8 164.743 112.052 164.239 112.556C163.754 113.06 163.511 113.751 163.511 114.628V122.328C163.511 122.515 163.446 122.673 163.315 122.804C163.185 122.935 163.017 123 162.811 123H160.375Z" fill="#313BAC"/>
<path d="M89.1768 33.1C89.0328 33.1 88.8768 33.052 88.7088 32.956C88.5648 32.86 88.4328 32.788 88.3128 32.74L76.9728 24.928C76.6128 24.688 76.3488 24.448 76.1808 24.208C76.0128 23.944 75.9288 23.644 75.9288 23.308V22.66C75.9288 22.324 76.0128 22.036 76.1808 21.796C76.3488 21.556 76.6128 21.304 76.9728 21.04L88.3128 13.264C88.4328 13.192 88.5648 13.108 88.7088 13.012C88.8768 12.916 89.0328 12.868 89.1768 12.868C89.3688 12.868 89.5368 12.94 89.6808 13.084C89.8248 13.204 89.8968 13.384 89.8968 13.624V15.208C89.8968 15.472 89.8248 15.7 89.6808 15.892C89.5368 16.06 89.3328 16.228 89.0688 16.396L79.4208 22.984L89.0688 29.572C89.3328 29.764 89.5368 29.944 89.6808 30.112C89.8248 30.28 89.8968 30.508 89.8968 30.796V32.38C89.8968 32.596 89.8248 32.776 89.6808 32.92C89.5368 33.04 89.3688 33.1 89.1768 33.1ZM94.0076 37.024C93.8156 37.024 93.6476 36.952 93.5036 36.808C93.3596 36.664 93.2876 36.496 93.2876 36.304C93.2876 36.184 93.3236 36.04 93.3956 35.872L105.708 6.352C105.78 6.208 105.876 6.064 105.996 5.92C106.14 5.776 106.356 5.704 106.644 5.704H108.048C108.24 5.704 108.408 5.776 108.552 5.92C108.696 6.064 108.768 6.232 108.768 6.424C108.768 6.52 108.744 6.664 108.696 6.856L96.3476 36.376C96.2996 36.496 96.1916 36.628 96.0236 36.772C95.8796 36.94 95.6756 37.024 95.4116 37.024H94.0076ZM112.852 33.064C112.66 33.064 112.492 33.004 112.348 32.884C112.204 32.764 112.132 32.584 112.132 32.344V30.76C112.132 30.472 112.192 30.244 112.312 30.076C112.456 29.908 112.672 29.74 112.96 29.572L122.572 22.984L112.96 16.396C112.672 16.204 112.456 16.024 112.312 15.856C112.192 15.688 112.132 15.46 112.132 15.172V13.588C112.132 13.348 112.204 13.168 112.348 13.048C112.492 12.928 112.66 12.868 112.852 12.868C112.996 12.868 113.152 12.916 113.32 13.012C113.488 13.084 113.62 13.156 113.716 13.228L125.02 21.004C125.404 21.268 125.668 21.52 125.812 21.76C125.98 22 126.064 22.3 126.064 22.66V23.272C126.064 23.608 125.98 23.908 125.812 24.172C125.668 24.412 125.404 24.664 125.02 24.928L113.716 32.704C113.62 32.776 113.488 32.86 113.32 32.956C113.152 33.028 112.996 33.064 112.852 33.064Z" fill="#313BAC"/>
</svg>
